<?xml version="1.0" standalone="no"?>
<!DOCTYPE svg PUBLIC "-//W3C//DTD SVG 20010904//EN"
 "http://www.w3.org/TR/2001/REC-SVG-20010904/DTD/svg10.dtd">
<svg version="1.0" xmlns="http://www.w3.org/2000/svg"
 width="800.000000pt" height="800.000000pt" viewBox="0 0 800.000000 800.000000"
 preserveAspectRatio="xMidYMid meet">
<metadata>
Created by potrace 1.11, written by Peter Selinger 2001-2013
</metadata>
<g transform="translate(0.000000,800.000000) scale(0.100000,-0.100000)"
fill="#000000" stroke="none">
<path d="M3811 7970 c-1 -9 2 -20 7 -26 4 -5 -1 -1 -10 8 -16 18 -17 18 -23
-2 -3 -11 -13 -20 -22 -20 -13 0 -13 -3 -3 -16 11 -13 10 -16 -8 -21 -12 -3
-22 -10 -22 -15 0 -5 4 -7 9 -3 5 3 13 1 16 -5 4 -6 3 -10 -2 -9 -20 3 -27 -2
-13 -11 12 -7 10 -11 -10 -19 -22 -8 -13 -16 13 -12 5 1 6 -3 2 -9 -3 -6 -9
-8 -13 -6 -4 2 -7 -9 -8 -25 -1 -26 0 -27 13 -11 8 9 12 11 8 4 -4 -7 -8 -27
-11 -44 -2 -17 -7 -34 -11 -37 -5 -3 -9 -13 -11 -21 -2 -11 1 -10 12 3 9 12
16 14 21 8 3 -6 1 -11 -4 -11 -6 0 -11 -6 -11 -14 0 -8 -6 -17 -12 -19 -7 -3
-2 -6 12 -7 23 -1 23 -2 5 -10 -11 -5 -14 -9 -7 -9 6 -1 12 -5 12 -11 0 -5 -3
-9 -7 -7 -5 1 -9 -2 -10 -8 -2 -5 2 -10 7 -10 6 0 10 -4 9 -10 0 -5 -8 -9 -17
-8 -12 1 -10 -4 8 -18 15 -11 18 -17 8 -13 -10 3 -18 1 -18 -5 0 -6 7 -11 16
-11 8 0 12 -5 9 -10 -4 -6 -10 -8 -14 -6 -4 3 -7 -5 -6 -16 1 -12 8 -24 15
-26 9 -3 5 -9 -11 -19 -15 -9 -17 -12 -5 -9 13 5 17 2 13 -9 -4 -8 1 -19 11
-25 16 -10 16 -10 0 -8 -9 2 -17 -1 -16 -7 0 -5 3 -9 7 -8 4 1 8 -4 8 -12 0
-8 -4 -12 -9 -9 -4 3 -8 0 -8 -5 0 -6 5 -11 12 -11 9 0 9 -3 0 -12 -7 -7 -12
-17 -12 -22 0 -6 4 -5 9 2 6 10 10 8 14 -8 4 -15 2 -20 -7 -17 -7 3 -13 -1
-13 -9 0 -8 2 -12 5 -10 2 3 10 -1 17 -7 14 -13 10 -27 -6 -27 -6 0 -7 5 -3
12 4 7 3 8 -4 4 -9 -5 -8 -12 1 -27 10 -16 9 -22 -3 -30 -12 -8 -11 -9 6 -4
17 4 21 1 20 -17 -1 -13 -5 -29 -9 -35 -5 -7 -4 -13 1 -13 6 0 13 -7 16 -16 5
-13 3 -14 -6 -6 -10 8 -13 4 -14 -14 -1 -13 2 -24 7 -24 5 0 9 -5 9 -11 0 -5
-4 -7 -10 -4 -16 10 -11 -1 7 -16 14 -12 16 -12 8 0 -6 10 -4 12 4 7 7 -5 10
-14 7 -22 -3 -8 -2 -13 2 -13 19 3 33 -2 27 -10 -3 -6 6 -6 24 -1 16 4 32 5
36 2 3 -4 3 1 0 9 -4 11 1 18 14 22 15 4 19 10 14 23 -5 13 -3 15 8 9 8 -5 5
2 -5 14 -16 17 -17 21 -4 16 12 -5 16 -2 13 12 -2 10 -4 25 -4 33 -1 13 -2 13
-11 0 -6 -9 -10 -10 -10 -3 0 7 9 17 20 23 18 10 19 13 5 33 -13 20 -13 25 0
44 10 14 12 24 5 28 -6 4 -9 1 -8 -6 2 -6 -3 -14 -10 -16 -9 -4 -10 1 -2 22
12 32 12 38 2 31 -5 -3 -9 1 -9 9 0 8 4 12 9 9 4 -3 8 0 8 5 0 6 -6 11 -12 11
-9 0 -8 4 2 10 13 9 13 10 0 11 -8 0 -4 5 10 9 24 8 24 8 3 9 -13 1 -23 6 -23
12 0 5 4 8 8 5 5 -3 9 2 9 10 0 9 -6 13 -16 9 -13 -5 -13 -4 1 12 10 12 13 25
8 38 -11 27 -12 47 -2 41 5 -3 9 1 9 10 0 10 -7 12 -21 8 -12 -3 -16 -2 -11 3
6 4 12 19 14 33 1 14 8 28 15 32 6 5 1 8 -14 9 -22 0 -23 1 -5 8 19 8 19 8 0
19 -17 9 -17 11 -3 12 11 0 15 6 11 20 -3 13 0 20 8 20 9 1 8 4 -4 11 -15 9
-16 13 -5 27 8 10 9 13 1 9 -6 -4 -14 -3 -17 2 -4 5 2 12 11 14 17 4 17 5 0 6
-10 0 -15 6 -12 11 4 6 11 7 17 4 7 -4 8 -2 4 5 -4 6 -12 9 -17 6 -13 -9 -11
9 4 24 10 11 10 13 0 7 -14 -8 -15 -3 -16 57 0 20 -4 37 -9 37 -4 0 -8 9 -8
20 0 11 -4 20 -10 20 -5 0 -10 5 -10 11 0 5 6 7 13 3 6 -4 5 1 -4 12 -9 10
-19 26 -22 34 -5 13 -6 13 -6 0z m84 -550 c3 -6 -1 -7 -9 -4 -18 7 -21 14 -7
14 6 0 13 -4 16 -10z m20 -260 c3 -5 1 -10 -4 -10 -6 0 -11 5 -11 10 0 6 2 10
4 10 3 0 8 -4 11 -10z"/>
<path d="M3763 7955 c0 -8 4 -12 9 -9 5 3 6 10 3 15 -9 13 -12 11 -12 -6z"/>
<path d="M3875 7800 c-3 -5 -1 -10 4 -10 6 0 11 5 11 10 0 6 -2 10 -4 10 -3 0
-8 -4 -11 -10z"/>
<path d="M5619 7303 c-1 -5 -1 -12 0 -17 1 -5 -5 -4 -13 3 -13 11 -17 10 -22
-3 -3 -9 -11 -13 -18 -9 -6 4 -5 -1 2 -10 12 -14 11 -16 -6 -12 -15 3 -19 -2
-16 -21 2 -20 0 -23 -11 -14 -10 8 -15 8 -21 -1 -4 -8 -3 -9 4 -5 7 4 12 1 12
-9 0 -11 -5 -15 -15 -11 -8 3 -14 2 -14 -2 4 -25 -2 -42 -13 -36 -8 5 -9 2 -5
-10 4 -10 3 -15 -3 -11 -9 6 -12 2 -14 -27 -1 -7 -9 -19 -19 -27 -11 -7 -16
-20 -12 -28 4 -13 3 -14 -10 -3 -13 11 -14 10 -9 -5 6 -14 4 -16 -7 -10 -11 7
-11 5 1 -10 9 -11 10 -16 3 -11 -8 4 -13 2 -13 -4 0 -6 -4 -9 -9 -5 -5 3 -12
1 -15 -4 -4 -5 -1 -13 5 -17 8 -5 9 -3 4 7 -5 8 -4 10 0 6 16 -14 14 -36 -3
-30 -11 5 -13 3 -7 -7 6 -10 4 -12 -10 -6 -15 5 -16 4 -5 -9 12 -15 12 -16
-12 -19 -7 -1 -12 -9 -10 -19 2 -9 -1 -17 -6 -17 -6 0 -13 -7 -16 -16 -6 -15
-4 -15 10 -3 16 13 16 12 4 -8 -8 -13 -20 -19 -29 -15 -14 5 -14 4 -1 -13 12
-15 12 -17 1 -10 -11 6 -13 4 -8 -8 4 -11 1 -17 -8 -17 -8 0 -12 -8 -10 -19 2
-13 -1 -18 -10 -15 -7 3 -16 0 -21 -7 -4 -8 -3 -10 4 -5 7 4 12 2 12 -3 0 -6
-8 -11 -17 -11 -15 0 -16 -2 -3 -10 13 -8 12 -10 -2 -10 -10 0 -18 -5 -18 -11
0 -5 6 -7 13 -3 9 6 9 5 0 -8 -7 -8 -9 -19 -5 -24 4 -4 -1 -2 -11 5 -15 12
-17 12 -11 -3 3 -9 1 -22 -5 -30 -6 -7 -8 -16 -4 -20 4 -4 0 -4 -8 -1 -10 4
-16 0 -16 -9 0 -8 5 -12 10 -9 5 3 7 0 5 -8 -3 -8 -11 -13 -17 -11 -7 1 -4
-10 6 -25 17 -27 17 -28 -2 -13 -11 9 -16 10 -11 2 4 -7 26 -22 49 -34 29 -14
38 -16 29 -6 -10 13 -8 15 13 13 14 -2 23 1 19 7 -3 5 4 12 16 15 13 3 19 11
16 19 -3 8 1 14 9 14 8 0 15 5 15 11 0 5 4 8 9 5 5 -4 8 5 7 19 -2 13 0 22 4
20 5 -3 11 2 14 11 4 10 12 14 24 9 14 -5 15 -4 5 6 -15 15 -17 33 -3 24 6 -3
10 -1 10 5 0 6 5 8 13 4 7 -5 6 0 -3 11 -8 10 -10 16 -4 12 7 -4 18 1 25 10
10 12 10 14 2 9 -7 -4 -13 -2 -13 3 0 6 5 11 11 11 5 0 7 6 3 13 -5 7 0 6 11
-3 17 -14 18 -14 5 10 -12 23 -12 24 4 11 15 -12 17 -12 14 0 -2 8 -7 17 -13
21 -6 5 -3 8 7 8 14 0 46 38 40 48 -7 9 0 22 10 20 7 -2 14 8 16 22 2 14 8 30
14 35 8 7 8 6 3 -4 -6 -10 -4 -12 4 -7 9 6 9 11 1 21 -12 15 13 41 30 30 5 -3
10 -1 10 4 0 6 -4 11 -10 11 -5 0 -10 5 -10 11 0 5 5 7 10 4 6 -3 10 1 10 9 0
9 5 16 11 16 5 0 8 4 5 9 -3 5 0 11 8 14 7 3 16 14 18 25 4 16 2 19 -11 15
-13 -4 -13 -2 2 7 9 6 21 8 27 5 10 -6 6 28 -6 48 -6 9 -5 9 7 0 12 -10 15 -8
16 10 1 12 7 23 13 25 5 2 7 9 3 15 -4 7 0 8 12 3 14 -5 16 -4 7 7 -9 10 -8
17 0 25 9 9 9 12 -1 12 -7 0 -9 5 -5 12 5 8 2 9 -10 5 -9 -4 -15 -3 -12 1 3 5
-4 16 -15 25 -20 18 -38 22 -40 10z"/>
<path d="M3739 7143 c-13 -16 -12 -17 4 -4 9 7 17 15 17 17 0 8 -8 3 -21 -13z"/>
<path d="M1634 7024 c4 -22 3 -24 -10 -13 -12 10 -13 9 -8 -5 3 -9 14 -16 23
-17 10 0 11 -2 4 -6 -7 -2 -13 -9 -13 -15 0 -15 27 -38 35 -30 4 4 3 -3 -3
-14 -10 -18 -7 -25 16 -47 41 -39 54 -56 48 -66 -6 -9 18 -34 25 -27 2 2 10
-2 17 -10 7 -8 10 -14 6 -14 -4 0 3 -9 16 -20 13 -11 19 -20 14 -21 -5 0 1 -4
13 -9 16 -7 20 -15 16 -32 -4 -18 -3 -20 6 -8 9 13 11 13 11 -2 0 -10 6 -18
13 -18 8 0 7 -4 -3 -11 -12 -9 -10 -10 8 -6 20 5 22 3 10 -11 -10 -12 -10 -14
0 -8 7 4 12 1 12 -8 0 -9 7 -16 16 -16 8 0 12 -4 9 -10 -3 -5 -1 -10 4 -10 6
0 11 -6 11 -14 0 -7 7 -19 15 -26 8 -7 13 -16 10 -20 -3 -5 4 -6 15 -3 15 4
18 1 15 -16 -2 -11 -1 -20 3 -20 18 3 35 -2 29 -7 -4 -4 1 -14 11 -23 9 -9 23
-28 31 -43 8 -16 18 -28 23 -28 14 0 38 -27 31 -34 -4 -3 -1 -6 6 -6 6 0 22
-9 34 -20 12 -11 28 -18 36 -15 12 5 12 3 0 -11 -13 -16 -12 -16 10 -5 15 8
21 9 17 2 -10 -16 9 -14 23 3 7 8 21 12 32 9 15 -4 18 -2 12 12 -5 14 -3 16 7
10 10 -6 12 -4 7 9 -4 10 -7 27 -7 37 0 14 -4 18 -12 13 -8 -5 -7 0 2 11 9 11
10 16 3 11 -8 -4 -13 -2 -13 6 0 10 -3 9 -11 -2 -8 -12 -9 -11 -4 6 4 14 0 24
-10 28 -8 3 -15 12 -15 21 0 8 -6 15 -14 15 -14 0 -32 36 -28 53 1 5 -2 6 -8
2 -5 -3 -10 -1 -10 5 0 6 -4 8 -10 5 -6 -3 -10 4 -10 17 0 18 -2 20 -10 8 -8
-13 -10 -13 -10 1 0 9 -10 21 -22 28 -13 6 -15 9 -6 7 12 -3 15 -1 11 9 -3 8
-8 13 -12 10 -4 -2 -13 5 -21 15 -8 10 -18 16 -23 13 -6 -3 -7 -1 -3 6 4 6 0
18 -8 27 -9 9 -13 21 -9 27 4 7 -1 6 -10 -2 -9 -7 -18 -10 -18 -5 -1 5 -2 14
-4 19 -1 6 -3 15 -3 20 -1 6 -16 16 -33 24 -16 7 -28 16 -25 19 3 2 11 1 19
-4 7 -5 5 -1 -6 8 -10 10 -16 22 -13 27 4 5 -3 7 -16 3 -14 -3 -19 -2 -14 6 4
7 1 12 -10 12 -14 0 -14 3 -4 15 11 13 10 14 -5 9 -13 -5 -16 -4 -11 4 4 7 1
12 -9 12 -12 0 -15 5 -11 16 4 10 1 14 -6 11 -13 -4 -48 29 -48 45 0 5 -4 6
-10 3 -5 -3 -10 0 -10 8 0 8 -7 18 -16 21 -8 3 -13 10 -10 15 3 5 -4 7 -16 3
-17 -4 -20 -2 -16 14 4 14 0 20 -13 20 -10 0 -15 -4 -13 -8 3 -4 0 -8 -5 -8
-6 0 -11 7 -11 16 0 8 -4 12 -10 9 -5 -3 -10 -2 -10 2 0 5 -9 9 -20 10 -16 1
-19 -3 -16 -23z m47 -131 c13 -16 12 -17 -3 -4 -10 7 -18 15 -18 17 0 8 8 3
21 -13z m69 -93 c0 -5 -2 -10 -4 -10 -3 0 -8 5 -11 10 -3 6 -1 10 4 10 6 0 11
-4 11 -10z m211 -267 c13 -16 12 -17 -3 -4 -10 7 -18 15 -18 17 0 8 8 3 21
-13z"/>
<path d="M3726 6602 c-2 -4 -20 -9 -38 -10 -48 -4 -61 -7 -77 -17 -10 -5 -16
-4 -19 3 -2 7 -9 9 -15 5 -7 -4 -19 -9 -27 -10 -8 -2 -28 -5 -45 -8 -16 -4
-40 -7 -52 -7 -13 -1 -23 -5 -23 -8 0 -4 -10 -6 -22 -5 -13 1 -28 -2 -35 -7
-7 -5 -17 -7 -22 -4 -5 4 -12 2 -16 -3 -3 -5 -14 -8 -25 -6 -11 2 -20 0 -20
-4 0 -5 -12 -11 -27 -14 -16 -3 -39 -8 -53 -12 -14 -4 -31 -7 -37 -7 -7 -1
-13 -5 -13 -10 0 -4 -3 -7 -7 -6 -13 4 -127 -35 -134 -45 -3 -5 -9 -8 -13 -8
-6 1 -9 1 -23 -4 -8 -2 -53 -19 -83 -32 -8 -3 -18 -5 -22 -5 -5 1 -8 -3 -8 -9
0 -6 -7 -8 -16 -5 -8 3 -12 2 -9 -4 3 -6 0 -10 -7 -10 -16 0 -162 -72 -166
-82 -2 -5 -9 -8 -16 -8 -8 0 -25 -9 -38 -20 -14 -10 -28 -17 -31 -13 -4 3 -9
-2 -13 -11 -3 -9 -15 -16 -25 -16 -10 0 -19 -5 -19 -10 0 -6 -8 -14 -17 -17
-20 -7 -84 -53 -94 -66 -3 -5 -10 -9 -15 -10 -9 -2 -24 -12 -79 -59 -18 -15
-35 -25 -39 -21 -3 3 -6 -2 -6 -12 0 -10 -2 -16 -5 -13 -6 5 -64 -46 -171
-149 -30 -29 -52 -53 -49 -53 3 0 0 -6 -7 -14 -7 -8 -16 -12 -21 -9 -4 2 -11
-6 -16 -19 -5 -13 -17 -30 -28 -39 -10 -9 -29 -30 -43 -48 -14 -18 -35 -42
-47 -53 -12 -12 -20 -25 -17 -30 3 -4 1 -8 -4 -8 -12 0 -119 -149 -112 -156 3
-3 -3 -10 -12 -15 -10 -6 -18 -15 -18 -21 0 -6 -8 -17 -17 -25 -11 -9 -12 -11
-3 -7 10 5 9 0 -4 -14 -11 -12 -15 -22 -10 -22 5 0 -2 -7 -14 -16 -12 -8 -20
-19 -17 -24 3 -5 -2 -16 -11 -24 -8 -9 -13 -16 -10 -16 4 0 -5 -18 -19 -40
-14 -22 -22 -40 -19 -40 4 0 0 -8 -9 -17 -8 -10 -15 -20 -15 -23 0 -10 -27
-65 -35 -71 -5 -3 -8 -9 -8 -13 3 -20 0 -26 -11 -20 -7 4 -8 3 -4 -5 4 -6 3
-17 -2 -24 -9 -12 -25 -68 -22 -76 1 -2 -3 -7 -8 -10 -6 -3 -12 -15 -14 -26
-1 -11 -5 -22 -8 -25 -6 -6 -40 -105 -46 -133 -2 -12 -8 -23 -13 -25 -6 -2 -7
-10 -4 -19 3 -8 0 -19 -8 -24 -10 -6 -11 -9 -1 -9 8 0 9 -5 3 -17 -14 -27 -23
-54 -28 -88 -5 -40 -11 -69 -13 -72 -2 -2 -4 -12 -5 -23 -1 -11 -4 -21 -5 -22
-1 -2 -4 -21 -6 -43 -10 -111 -17 -161 -25 -171 -5 -6 -5 -14 -1 -18 10 -11 9
-30 -3 -38 -7 -5 -6 -8 1 -8 12 0 13 -38 1 -56 -3 -6 -3 -14 0 -18 12 -12 10
-166 -2 -166 -5 0 -4 -4 4 -9 7 -5 10 -14 7 -20 -4 -6 -3 -11 3 -11 7 0 7 -8
1 -26 -7 -17 -7 -23 1 -19 7 5 9 -7 5 -34 -2 -23 -1 -41 2 -41 4 0 8 -21 9
-47 4 -92 8 -133 15 -133 3 0 5 -8 3 -17 -1 -10 2 -24 8 -30 6 -9 6 -13 -3
-13 -10 0 -10 -3 0 -15 7 -8 9 -15 6 -15 -4 0 -2 -8 3 -18 7 -13 6 -23 -2 -32
-9 -10 -9 -11 1 -6 8 5 12 -2 12 -22 0 -16 3 -32 7 -35 3 -4 8 -21 10 -39 2
-17 8 -37 14 -45 9 -10 8 -13 -2 -13 -10 0 -10 -3 -1 -12 7 -7 12 -23 12 -36
0 -13 4 -21 8 -18 5 3 8 -5 7 -17 -1 -12 2 -28 8 -34 5 -7 6 -13 2 -13 -4 0
-2 -7 5 -15 7 -8 10 -15 6 -15 -3 0 0 -17 8 -37 8 -21 17 -47 22 -58 9 -26 15
-47 16 -62 1 -7 5 -13 10 -13 4 0 8 -6 9 -12 0 -7 11 -35 24 -63 13 -27 21
-53 19 -57 -3 -5 0 -8 5 -8 6 0 11 -7 11 -15 0 -8 4 -15 10 -15 5 0 9 -3 9 -7
-4 -23 2 -43 11 -38 5 3 10 -3 10 -14 0 -12 5 -21 10 -21 6 0 10 -6 10 -14 0
-16 60 -119 73 -124 4 -2 5 -8 1 -13 -3 -5 -1 -9 3 -9 5 0 17 -17 28 -37 11
-21 27 -45 35 -55 32 -36 40 -48 40 -58 0 -5 4 -10 8 -10 4 0 15 -13 24 -28
24 -41 82 -106 170 -194 43 -43 78 -83 78 -90 0 -6 3 -8 7 -5 3 4 19 -7 35
-23 15 -16 28 -28 28 -25 0 3 15 -10 32 -28 18 -18 51 -46 73 -62 22 -17 47
-37 55 -46 8 -8 38 -31 65 -49 28 -19 59 -42 69 -52 11 -10 28 -20 38 -24 10
-3 18 -10 18 -16 0 -6 3 -9 6 -5 3 3 15 -2 26 -12 10 -10 39 -29 63 -41 25
-13 45 -26 45 -30 0 -3 16 -12 35 -20 19 -7 32 -17 29 -22 -3 -5 -2 -7 3 -6
10 4 162 -70 187 -91 11 -9 16 -11 13 -4 -5 8 -1 8 18 0 14 -7 25 -15 25 -19
0 -4 7 -5 15 -2 8 4 15 1 15 -5 0 -6 3 -10 8 -9 4 1 21 -4 37 -11 17 -7 37
-14 45 -16 8 -2 17 -4 20 -5 3 -1 8 -2 13 -1 4 0 7 -4 7 -11 0 -6 3 -9 6 -5 3
3 18 1 33 -5 14 -5 37 -12 51 -15 13 -2 27 -7 30 -11 3 -4 19 -9 35 -11 17 -1
34 -6 40 -9 5 -3 16 -7 25 -8 20 -3 55 -12 55 -14 0 -3 52 -11 82 -12 18 -1
30 -4 28 -8 -2 -4 15 -8 38 -9 23 -2 48 -3 55 -4 6 0 12 -5 12 -10 0 -5 7 -4
15 3 8 7 15 8 15 4 0 -5 74 -10 165 -10 l165 -1 0 109 c0 104 -1 109 -22 117
-15 5 -26 4 -30 -3 -5 -7 -8 -7 -8 3 0 7 -6 11 -15 8 -8 -4 -16 -3 -19 1 -2 4
-21 7 -40 7 -20 -1 -36 1 -36 5 0 6 -35 10 -87 10 -13 0 -23 4 -23 9 0 5 -8 8
-17 8 -54 0 -84 4 -80 11 3 4 -18 8 -45 9 -28 0 -54 6 -58 13 -5 9 -9 9 -14 1
-4 -6 -12 -9 -17 -6 -12 8 -49 17 -76 18 -13 1 -23 4 -23 7 0 4 -6 7 -12 7
-31 1 -132 28 -188 50 -21 9 -28 10 -46 12 -9 0 -12 6 -8 13 4 7 3 8 -5 4 -6
-4 -18 -2 -26 4 -8 7 -20 10 -27 8 -7 -3 -22 4 -32 14 -11 10 -26 16 -33 14
-7 -3 -13 -1 -13 5 0 6 -4 7 -10 4 -5 -3 -10 -3 -10 2 0 4 -25 19 -55 33 -30
14 -55 28 -55 33 0 4 -7 7 -15 7 -8 0 -24 10 -36 22 -12 13 -19 17 -15 10 11
-18 -169 103 -236 159 -21 17 -38 29 -38 26 0 -5 -73 59 -138 121 -25 23 -46
42 -48 42 -1 0 -27 25 -57 55 -30 30 -52 55 -50 55 2 0 -2 6 -9 14 -7 8 -16
12 -20 9 -5 -2 -8 2 -8 9 0 7 -16 30 -36 51 -19 20 -33 37 -31 37 3 0 -13 19
-34 42 -22 24 -39 49 -39 55 0 7 -3 13 -8 13 -4 0 -18 18 -32 40 -14 22 -28
40 -32 40 -5 0 -8 7 -8 16 0 9 -8 24 -17 33 -17 15 -53 75 -78 128 -5 13 -14
23 -18 23 -5 0 -5 4 -2 10 3 6 1 10 -5 10 -6 0 -8 4 -5 10 3 5 1 10 -5 10 -6
0 -8 5 -5 10 3 6 1 10 -4 10 -6 0 -11 8 -11 19 0 10 -7 24 -15 31 -8 7 -15 19
-15 26 0 13 -18 52 -30 64 -6 6 -12 30 -13 48 0 6 -4 12 -8 12 -6 0 -11 12
-24 63 -2 4 -4 10 -5 15 -1 4 -2 10 -1 15 0 4 -3 7 -7 7 -5 0 -9 7 -10 15 -1
8 -3 22 -4 30 -1 8 -4 15 -8 15 -4 0 -7 6 -8 13 -1 14 -10 52 -12 52 -2 0 -9
30 -14 60 -2 11 -8 31 -14 45 -5 14 -8 28 -5 33 2 4 0 7 -5 7 -5 0 -8 14 -7
30 1 17 -3 30 -9 30 -6 0 -4 5 4 10 9 6 11 10 3 10 -7 0 -10 7 -7 15 4 8 2 15
-3 15 -5 0 -10 15 -11 33 -3 60 -8 93 -16 105 -4 7 -3 12 3 12 7 0 6 10 -1 30
-5 17 -8 39 -5 50 3 11 0 20 -6 20 -8 0 -8 3 -2 8 11 8 16 42 6 42 -10 0 -7
184 4 192 6 5 5 8 -3 8 -7 0 -11 4 -8 9 6 10 18 148 17 189 -1 16 3 21 12 16
8 -5 7 -2 -2 9 -7 9 -9 17 -4 17 5 0 8 12 8 28 -1 15 1 31 4 37 5 9 8 29 14
85 1 14 5 27 8 30 7 5 20 75 22 122 1 14 6 26 12 25 5 -1 9 5 10 13 2 32 18
90 24 90 4 0 8 9 9 20 4 43 6 50 14 50 4 0 7 3 7 8 -3 19 2 33 11 27 5 -3 7 0
5 7 -3 8 3 31 14 53 10 22 17 43 14 47 -2 5 0 8 5 8 9 0 25 37 23 53 -1 4 4 7
10 7 5 0 8 4 5 9 -4 5 -3 11 1 13 10 4 52 91 50 101 -1 5 6 13 16 18 9 6 17
14 17 20 0 12 51 91 65 101 7 5 7 8 0 8 -5 0 -2 5 8 11 9 5 17 15 17 21 0 5
11 24 25 42 14 17 29 36 33 41 5 6 9 13 10 18 1 4 10 15 20 25 31 33 57 67 59
76 1 5 14 17 30 27 15 10 24 19 18 19 -5 0 -2 7 8 15 10 7 30 28 43 46 13 18
24 29 24 25 0 -5 14 8 30 29 17 21 30 35 30 31 0 -4 7 -1 15 8 8 8 15 20 15
27 0 7 3 10 6 7 3 -4 18 7 33 23 16 16 31 29 34 29 3 0 18 12 34 28 15 15 41
36 57 47 16 11 36 28 45 38 8 9 21 17 28 17 7 0 13 5 13 10 0 6 6 10 14 10 8
0 21 9 29 20 8 11 17 17 20 13 4 -3 7 -1 7 6 0 7 5 9 10 6 6 -3 10 -1 10 5 0
6 5 8 10 5 6 -3 13 1 16 9 3 9 10 16 15 16 8 0 73 40 97 60 6 6 12 8 12 5 0
-3 18 6 39 19 21 14 42 22 45 19 3 -4 6 -2 6 4 0 9 34 24 49 22 2 0 7 4 11 11
4 6 13 13 21 14 8 2 32 11 54 21 22 11 43 20 48 21 4 1 10 3 15 4 4 1 10 2 15
1 4 0 7 4 7 10 0 5 5 7 11 3 6 -3 14 -1 18 5 4 6 21 13 38 14 17 1 29 6 25 11
-3 5 4 7 16 4 13 -4 23 0 26 9 5 12 9 13 21 3 10 -9 15 -9 15 -1 0 6 8 11 18
11 10 0 22 3 26 7 4 4 17 8 29 9 12 2 36 6 52 10 17 3 37 7 45 8 9 1 20 4 25
8 6 3 20 4 33 3 12 -1 22 1 22 5 0 4 16 6 35 5 19 -1 35 1 35 4 0 3 17 6 37 5
21 0 41 4 44 9 4 5 16 4 29 -3 12 -7 20 -8 16 -2 -6 10 91 15 274 15 146 -1
220 -5 226 -15 3 -4 14 -3 25 2 10 6 19 7 19 2 0 -5 8 -9 18 -9 69 0 112 -4
109 -10 -3 -5 18 -9 45 -9 30 -1 54 -7 59 -15 7 -12 9 -12 9 0 0 9 4 10 13 4
6 -5 26 -10 42 -12 17 -2 32 -6 35 -11 3 -4 13 -6 23 -4 9 1 17 -1 17 -6 0 -5
8 -7 17 -6 9 2 29 -4 45 -11 15 -8 32 -12 37 -9 5 4 11 1 13 -4 2 -6 13 -12
26 -13 12 0 22 -5 22 -10 0 -4 5 -5 10 -2 6 3 10 1 10 -5 0 -6 4 -9 8 -6 4 2
43 -13 87 -34 44 -22 86 -40 93 -40 6 0 12 -4 12 -9 0 -8 37 -24 53 -22 4 1 7
-3 7 -7 0 -5 18 -17 40 -28 22 -10 40 -22 40 -26 0 -5 7 -8 15 -8 8 0 15 -4
15 -10 0 -5 4 -10 9 -10 15 0 121 -72 121 -83 0 -6 3 -8 6 -4 5 5 27 -10 60
-41 8 -7 14 -10 14 -6 0 4 8 -1 18 -12 10 -10 34 -30 52 -44 18 -14 47 -37 64
-52 17 -15 34 -28 39 -28 4 0 7 -7 7 -17 0 -9 3 -14 6 -11 5 6 146 -127 153
-144 1 -4 21 -26 44 -50 23 -24 53 -59 67 -77 14 -19 30 -39 36 -46 6 -6 19
-25 27 -42 9 -17 23 -33 32 -37 9 -3 14 -10 10 -15 -3 -5 4 -16 15 -24 11 -7
17 -17 13 -20 -3 -4 -1 -7 5 -7 7 0 12 -6 12 -13 0 -7 9 -23 20 -35 12 -12 18
-22 14 -22 -4 0 -1 -8 7 -17 28 -35 84 -143 81 -155 -1 -5 2 -8 7 -8 7 0 27
-39 35 -70 1 -3 7 -15 14 -28 7 -12 10 -28 6 -34 -4 -7 -3 -8 4 -4 7 4 12 1
12 -9 0 -8 4 -23 9 -33 27 -53 33 -71 26 -83 -6 -8 -4 -10 5 -4 10 6 12 4 7
-8 -3 -10 -2 -17 3 -17 4 0 12 -15 15 -32 4 -18 12 -38 17 -45 5 -7 7 -17 4
-22 -4 -5 -2 -12 4 -16 6 -4 8 -11 5 -16 -4 -5 -2 -9 3 -9 6 0 8 -9 5 -20 -3
-11 -1 -20 4 -20 5 0 10 -10 11 -22 1 -13 3 -32 5 -43 1 -11 8 -26 15 -34 10
-10 10 -16 1 -27 -8 -10 -8 -14 0 -14 6 0 10 -3 10 -7 -1 -5 -1 -10 1 -13 1
-3 3 -21 6 -40 5 -40 12 -74 14 -77 2 -2 3 -11 4 -20 1 -10 5 -24 9 -30 5 -8
3 -13 -4 -13 -8 0 -8 -4 1 -15 7 -9 10 -18 7 -22 -4 -3 -2 -12 4 -19 6 -7 6
-14 0 -18 -5 -3 -7 -14 -4 -24 4 -17 -25 -18 -641 -18 -355 0 -646 3 -646 8 0
15 -4 23 -17 36 -7 8 -11 17 -8 22 3 5 1 10 -4 12 -5 1 -11 10 -13 18 -2 8
-11 23 -21 32 -10 9 -18 19 -18 22 3 27 -1 46 -9 41 -5 -3 -12 6 -16 20 -3 14
-10 25 -16 25 -5 0 -6 5 -3 10 3 6 2 10 -3 10 -5 0 -12 8 -15 18 -7 20 -37 71
-54 89 -6 7 -15 22 -18 33 -3 11 -11 20 -16 20 -6 0 -7 5 -4 10 3 6 1 10 -5
10 -6 0 -9 4 -6 9 3 5 -1 12 -10 15 -8 3 -12 10 -9 16 3 5 1 10 -4 10 -6 0
-11 7 -11 15 0 8 -5 15 -11 15 -5 0 -8 4 -5 9 3 5 -1 11 -9 15 -8 3 -15 14
-15 25 0 10 -7 22 -16 25 -8 3 -12 10 -9 16 3 5 2 10 -2 10 -5 0 -17 14 -26
30 -10 17 -16 30 -13 30 3 0 -2 9 -11 19 -33 37 -43 50 -43 61 0 5 -4 10 -10
10 -5 0 -10 7 -10 15 0 8 -4 15 -10 15 -5 0 -10 6 -10 13 0 7 -9 23 -20 35
-11 12 -20 26 -20 32 0 5 -4 10 -10 10 -5 0 -10 7 -10 15 0 8 -4 15 -10 15 -5
0 -10 6 -10 13 0 7 -9 23 -20 35 -11 12 -20 26 -20 32 0 5 -4 10 -10 10 -5 0
-10 7 -10 15 0 8 -4 15 -10 15 -5 0 -10 7 -10 15 0 8 -4 15 -10 15 -5 0 -10 7
-10 15 0 8 -4 15 -10 15 -5 0 -10 7 -10 15 0 8 -4 15 -10 15 -5 0 -10 7 -10
15 0 8 -4 15 -10 15 -5 0 -10 9 -10 21 0 11 -4 17 -10 14 -5 -3 -10 1 -10 9 0
9 -5 16 -12 16 -6 0 -9 3 -5 6 3 4 1 12 -6 20 -29 33 -37 44 -37 54 0 14 -37
50 -45 42 -3 -4 -3 0 0 9 3 8 -4 24 -15 36 -11 12 -20 27 -20 33 0 5 -4 10
-10 10 -5 0 -10 7 -10 15 0 8 -4 15 -10 15 -5 0 -10 7 -10 15 0 8 -4 15 -10
15 -5 0 -16 12 -24 28 -8 15 -23 38 -35 51 -11 13 -18 28 -15 33 3 4 0 7 -8 6
-7 -2 -12 3 -11 10 2 6 -4 12 -12 12 -8 0 -14 3 -12 8 1 4 -8 18 -20 31 -12
13 -20 28 -17 33 3 5 2 7 -3 6 -4 -2 -9 0 -10 5 -5 13 -43 47 -53 47 -5 0 -10
4 -10 10 0 15 -33 50 -46 50 -7 0 -14 5 -16 10 -2 6 -14 12 -28 12 -14 1 -28
6 -32 12 -4 6 -12 5 -22 -3 -11 -10 -16 -10 -16 -2 0 19 -38 -6 -45 -29 -4
-11 -10 -18 -13 -16 -4 2 -7 -14 -6 -37 0 -23 -4 -48 -9 -54 -6 -9 -5 -13 3
-13 10 0 10 -4 -1 -16 -10 -13 -10 -17 0 -24 8 -5 9 -10 3 -14 -6 -3 -9 -24
-7 -46 2 -22 -1 -42 -6 -45 -4 -3 -6 -12 -2 -20 3 -9 1 -21 -4 -28 -5 -6 -9
-26 -9 -44 1 -17 -2 -29 -5 -27 -4 2 -9 -5 -12 -16 -3 -11 -1 -18 4 -15 4 3 2
-7 -6 -21 -8 -15 -12 -31 -9 -36 3 -4 0 -8 -6 -8 -7 0 -9 -7 -6 -15 3 -9 -1
-18 -9 -21 -8 -4 -15 -10 -15 -16 0 -5 6 -6 13 -3 6 4 4 0 -5 -8 -10 -8 -15
-16 -12 -19 7 -8 -18 -58 -27 -53 -4 3 -6 -3 -4 -12 1 -10 -2 -23 -7 -29 -19
-25 -57 -108 -52 -116 3 -5 1 -7 -4 -6 -6 2 -11 -1 -13 -7 -1 -5 -9 -16 -18
-23 -9 -8 -10 -11 -3 -7 17 9 15 2 -8 -25 -11 -13 -20 -29 -20 -37 0 -7 -4
-13 -10 -13 -5 0 -10 -7 -10 -15 0 -8 -9 -24 -20 -35 -11 -11 -20 -27 -20 -35
0 -8 -5 -15 -11 -15 -5 0 -7 -5 -4 -10 3 -6 -1 -13 -9 -16 -9 -3 -16 -11 -16
-16 0 -5 -9 -23 -21 -39 -11 -16 -17 -29 -13 -29 4 0 -1 -9 -12 -20 -33 -33
-43 -48 -37 -54 3 -3 -2 -8 -11 -12 -9 -3 -14 -10 -11 -14 3 -5 -2 -16 -11
-24 -8 -9 -12 -16 -7 -16 4 0 -1 -7 -11 -15 -11 -8 -16 -15 -12 -15 4 0 -1
-12 -11 -27 -11 -16 -28 -47 -38 -70 -11 -24 -23 -43 -27 -43 -4 0 -4 -7 -1
-17 4 -11 3 -14 -5 -9 -8 5 -12 0 -12 -13 0 -12 -5 -21 -11 -21 -5 0 -7 -4 -4
-10 3 -5 1 -10 -5 -10 -6 0 -9 -4 -5 -9 3 -5 0 -15 -7 -23 -7 -7 -13 -17 -13
-23 -1 -18 -28 -65 -37 -65 -5 0 -7 -4 -3 -9 3 -6 -3 -25 -14 -44 -11 -19 -17
-38 -14 -41 4 -3 1 -6 -5 -6 -7 0 -11 -3 -10 -7 1 -5 -5 -24 -14 -43 -21 -50
-42 -114 -40 -122 1 -5 -2 -8 -8 -8 -5 0 -7 -7 -4 -15 4 -8 1 -15 -7 -15 -7 0
-9 -3 -6 -7 4 -3 1 -13 -6 -21 -10 -13 -9 -14 3 -7 13 8 13 6 2 -8 -8 -9 -11
-21 -7 -27 3 -5 1 -10 -5 -10 -7 0 -10 -7 -6 -15 3 -8 1 -15 -4 -15 -5 0 -6
-7 -3 -17 4 -9 2 -14 -3 -11 -5 4 -9 -6 -10 -20 0 -15 -4 -49 -8 -77 -5 -27
-8 -63 -9 -80 -1 -16 -6 -33 -12 -37 -6 -5 -5 -8 4 -8 9 0 10 -4 4 -12 -12
-15 -12 -12 -14 -155 -1 -61 2 -116 5 -122 4 -6 2 -11 -5 -11 -8 0 -9 -3 0
-13 6 -8 8 -17 4 -20 -3 -4 0 -7 8 -7 11 0 11 -2 -1 -10 -8 -5 -10 -10 -4 -10
6 0 11 -16 12 -35 3 -54 5 -65 11 -65 4 0 8 -12 9 -26 1 -15 8 -34 15 -42 9
-13 9 -14 0 -8 -9 5 -11 2 -7 -8 3 -9 11 -16 16 -16 6 0 8 -7 4 -15 -3 -8 -2
-15 2 -15 4 0 9 -10 9 -22 1 -13 7 -24 13 -26 5 -2 10 -15 10 -28 0 -16 4 -23
11 -18 7 4 10 -1 7 -12 -2 -10 5 -27 15 -37 10 -10 15 -22 12 -27 -4 -6 -1
-10 5 -10 7 0 9 -7 6 -15 -3 -9 1 -18 9 -21 8 -4 15 -12 15 -20 0 -8 5 -14 10
-14 6 0 10 -7 10 -15 0 -9 7 -18 15 -21 8 -4 13 -9 10 -14 -2 -4 5 -16 15 -28
11 -12 20 -25 20 -29 0 -5 9 -15 20 -23 11 -8 20 -18 20 -23 0 -5 23 -31 50
-57 28 -26 50 -53 50 -59 0 -6 6 -10 13 -8 6 1 11 -4 10 -11 -2 -6 2 -12 8
-12 16 0 39 -26 31 -35 -4 -5 -1 -5 6 -1 8 5 21 1 30 -8 51 -46 61 -54 66 -49
3 4 6 -1 6 -10 0 -10 5 -14 15 -11 8 4 15 1 15 -7 0 -7 3 -9 7 -6 3 4 13 -2
20 -13 8 -11 19 -18 24 -15 5 4 12 -1 15 -9 3 -9 12 -16 20 -16 8 0 14 -4 14
-10 0 -5 3 -9 8 -9 22 4 42 -2 37 -11 -3 -5 3 -10 14 -10 12 0 21 -5 21 -11 0
-5 5 -7 10 -4 6 3 10 2 10 -3 0 -9 8 -11 54 -14 14 -1 24 -4 24 -7 -2 -19 4
-22 17 -11 12 10 15 9 15 -4 0 -10 5 -14 10 -11 6 4 17 1 25 -5 8 -6 19 -9 25
-5 5 3 10 -2 10 -12 0 -15 2 -16 10 -3 6 10 10 11 10 3 0 -8 13 -13 29 -13 16
0 32 -6 34 -12 4 -10 6 -10 6 -1 1 7 8 10 16 7 8 -4 12 -11 8 -18 -4 -6 1 -5
10 3 9 7 17 9 17 4 0 -4 18 -8 40 -7 23 0 40 -4 40 -10 0 -6 5 -4 10 4 5 8 10
10 10 5 0 -12 40 -13 58 -1 7 4 12 4 12 -1 0 -10 101 -10 118 0 6 5 12 4 12
-1 0 -5 12 -8 28 -6 15 1 27 3 27 4 0 2 65 12 88 13 9 1 17 4 17 8 0 4 9 5 20
2 11 -3 20 -1 20 5 0 6 9 9 20 7 11 -2 20 0 20 4 0 5 16 12 35 15 19 4 35 12
35 18 0 6 3 9 6 5 7 -7 73 24 115 54 14 10 29 16 32 12 4 -3 9 2 13 11 3 9 10
16 15 16 16 0 139 114 139 129 0 5 9 13 21 16 11 4 18 9 15 12 -3 3 4 14 16
24 11 11 17 19 13 19 -4 0 2 9 14 19 12 11 21 21 20 23 -2 2 6 13 16 26 11 12
18 25 15 27 -3 3 5 12 18 20 12 9 20 21 17 26 -4 5 1 12 9 15 9 3 13 10 10 15
-3 5 0 9 6 9 6 0 8 5 5 10 -3 6 1 13 10 16 13 5 13 9 3 22 -9 10 -9 13 -1 9 7
-4 14 1 18 13 3 11 10 20 15 20 5 0 7 7 4 15 -4 8 -1 15 5 15 6 0 10 3 10 8
-3 18 2 33 9 28 4 -2 9 4 10 15 4 43 6 49 15 49 5 0 7 7 4 15 -4 8 -2 17 4 21
6 3 8 12 5 20 -3 8 -1 14 4 14 5 0 7 9 5 20 -2 11 1 20 7 20 6 0 8 9 5 20 -3
11 -2 20 1 20 4 0 7 15 6 33 0 17 3 37 6 42 4 6 7 37 6 70 -1 42 4 64 14 73 8
8 10 11 3 7 -16 -7 -14 97 1 107 8 5 7 8 0 8 -7 0 -12 19 -12 45 -1 25 -4 50
-7 55 -4 6 -2 10 4 10 7 0 7 8 2 23 -4 12 -7 31 -5 41 1 11 -2 28 -8 39 -8 15
-7 18 3 12 8 -5 10 -4 5 3 -9 14 -15 45 -18 89 -1 18 -5 33 -8 33 -4 0 -7 16
-8 35 -1 30 2 35 21 34 12 0 40 1 63 2 22 2 45 -1 52 -5 7 -4 12 -4 12 1 0 4
18 8 40 8 22 0 40 -4 40 -8 0 -5 5 -5 12 -1 16 10 68 11 68 1 0 -5 5 -5 12 -1
16 10 68 11 68 1 0 -5 5 -5 12 -1 16 10 68 11 68 1 0 -5 5 -5 12 -1 10 7 87 9
113 4 6 -1 15 -1 20 0 6 1 42 1 80 1 75 -2 79 -1 140 0 22 1 45 0 50 -1 6 -1
13 -2 18 -1 6 2 81 2 190 0 6 0 44 1 84 2 39 1 76 -2 82 -5 6 -4 11 -4 11 1 0
7 98 9 125 2 21 -5 44 13 38 28 -5 12 -3 14 8 8 11 -7 12 -6 2 6 -10 12 -10
18 0 29 10 10 9 11 -2 5 -11 -6 -13 -4 -6 11 10 26 13 114 3 108 -4 -3 -8 2
-8 11 0 9 4 14 9 11 11 -7 8 21 -4 31 -4 4 -5 2 0 -6 6 -10 4 -12 -4 -7 -9 6
-8 14 4 32 8 13 12 24 8 23 -20 -3 -24 2 -12 17 8 9 9 18 3 22 -5 4 -10 30
-11 57 -2 88 -5 120 -15 139 -8 14 -7 17 3 11 8 -6 10 -4 3 6 -10 16 -13 29
-19 79 -2 19 -7 49 -11 65 -4 17 -6 38 -6 48 0 9 -2 17 -6 17 -7 0 -12 25 -15
68 0 6 -3 12 -6 12 -4 0 -8 12 -9 26 -1 14 -5 31 -9 37 -8 14 -14 33 -17 62
-1 11 -8 30 -14 41 -6 12 -8 24 -5 28 3 3 1 6 -6 6 -7 0 -9 5 -6 10 3 6 1 10
-4 10 -6 0 -10 3 -10 8 3 17 -14 72 -23 72 -5 0 -7 4 -3 9 3 5 -2 17 -11 25
-8 9 -13 16 -10 16 4 0 -5 23 -19 50 -14 28 -22 50 -18 50 5 0 3 4 -3 8 -5 4
-25 36 -43 72 -19 36 -42 76 -52 89 -10 13 -16 27 -13 32 3 5 1 9 -4 9 -5 0
-15 14 -22 30 -7 17 -16 30 -21 30 -5 0 -9 6 -9 13 0 7 -8 22 -18 33 -10 10
-21 27 -25 37 -3 9 -11 17 -17 17 -5 0 -10 7 -10 15 0 8 -8 23 -17 33 -10 10
-29 33 -43 51 -56 75 -148 178 -228 255 -35 34 -76 73 -91 89 -16 15 -31 27
-35 27 -12 0 -44 38 -38 46 4 4 2 4 -5 0 -6 -3 -19 4 -27 16 -9 12 -16 19 -16
15 0 -5 -7 -2 -15 5 -33 30 -45 38 -45 32 0 -4 -8 2 -18 12 -22 24 -78 64 -91
64 -5 0 -11 3 -13 8 -4 10 -65 52 -76 52 -4 0 -17 8 -28 18 -10 9 -41 28 -69
42 -27 14 -51 28 -53 33 -2 4 -12 7 -23 7 -10 0 -19 5 -19 11 0 5 -4 7 -10 4
-5 -3 -10 -2 -10 3 0 5 -18 15 -40 22 -22 7 -45 19 -51 27 -6 7 -20 13 -30 13
-10 0 -34 9 -53 19 -19 11 -37 17 -40 14 -3 -4 -6 -1 -6 6 0 6 -6 11 -12 10
-7 -1 -22 1 -33 5 -28 11 -88 38 -99 44 -5 3 -6 -1 -1 -7 4 -8 -2 -7 -17 3
-14 9 -28 13 -31 9 -4 -3 -7 -1 -7 6 0 8 -8 11 -20 8 -11 -3 -20 -1 -20 5 0 5
-4 7 -9 3 -5 -3 -12 -1 -16 4 -3 6 -12 8 -20 4 -8 -3 -15 -1 -15 4 0 10 -8 12
-55 15 -14 1 -25 5 -25 8 0 4 -6 7 -12 8 -17 1 -72 10 -78 12 -3 2 -9 2 -13 1
-4 -1 -16 3 -26 8 -12 7 -22 6 -31 -2 -10 -9 -11 -9 -6 1 7 11 -11 15 -76 15
-10 0 -18 3 -18 7 0 4 -10 8 -22 8 -75 1 -105 5 -117 15 -12 9 -13 9 -7 0 4
-7 2 -13 -3 -13 -6 0 -11 6 -11 13 0 7 -3 8 -8 2 -9 -13 -32 -18 -32 -7 0 12
-344 10 -352 -2 -5 -7 -8 -6 -8 2 0 8 -5 10 -12 5 -20 -12 -50 -14 -43 -3 3 5
4 10 1 10 -3 0 -7 -4 -10 -8z m2941 -2657 c0 -8 -4 -12 -9 -9 -5 3 -6 10 -3
15 9 13 12 11 12 -6z"/>
<path d="M2245 6281 c-3 -5 -2 -12 3 -15 5 -3 9 1 9 9 0 17 -3 19 -12 6z"/>
<path d="M5305 1090 c-4 -6 -10 -8 -14 -5 -5 2 -16 -4 -26 -15 -10 -11 -15
-20 -10 -20 4 0 14 8 22 18 13 15 13 15 3 -6 -6 -12 -8 -28 -4 -35 5 -6 -1 -5
-11 3 -17 14 -18 14 -6 -8 7 -13 17 -20 24 -15 8 4 7 1 -1 -10 -12 -14 -11
-16 6 -12 15 3 19 -1 15 -16 -4 -13 0 -19 11 -19 19 0 21 -11 4 -30 -11 -12
-10 -12 5 -1 11 9 17 10 17 2 0 -6 8 -11 18 -11 14 0 15 -2 2 -10 -13 -8 -12
-12 4 -27 14 -13 17 -13 10 -3 -5 9 0 6 11 -7 12 -13 22 -33 22 -45 1 -13 7
-24 13 -26 5 -2 8 -8 4 -13 -3 -5 3 -9 13 -9 12 0 14 -3 6 -8 -9 -6 -7 -12 7
-22 11 -8 20 -22 20 -32 0 -10 7 -18 15 -18 9 0 12 -6 8 -17 -4 -11 -3 -14 5
-9 8 5 10 2 6 -9 -4 -9 1 -24 10 -34 9 -10 13 -22 9 -26 -5 -5 1 -3 11 5 18
14 19 14 7 -9 -12 -22 -12 -23 7 -19 15 4 19 2 15 -8 -3 -8 -10 -11 -16 -7 -6
3 -7 1 -3 -6 4 -6 12 -8 18 -5 7 5 9 1 5 -9 -4 -12 -2 -14 10 -10 12 5 14 3 8
-8 -7 -11 -5 -11 10 1 10 8 16 10 12 3 -4 -6 -3 -14 3 -18 6 -4 7 -11 4 -17
-4 -7 -2 -8 5 -4 6 4 9 11 6 16 -3 5 0 12 6 16 7 4 9 3 5 -4 -3 -6 -2 -13 4
-17 5 -3 10 1 10 10 0 11 5 15 14 12 10 -4 14 0 11 14 -2 10 1 19 6 19 6 0 7
5 3 11 -5 8 -9 8 -14 -1 -5 -8 -9 -7 -13 5 -4 9 -3 13 3 10 6 -3 10 -1 10 4 0
6 -4 11 -9 11 -5 0 -11 9 -14 20 -3 11 -1 18 4 14 16 -10 9 3 -20 36 -16 19
-26 40 -23 49 4 10 1 13 -11 8 -11 -4 -14 -2 -10 9 3 7 0 14 -6 14 -6 0 -11 9
-11 20 0 11 -6 20 -12 20 -8 0 -9 3 -3 8 16 11 15 29 0 29 -8 0 -11 -5 -8 -10
4 -6 1 -7 -6 -2 -7 4 -11 16 -8 26 3 11 0 19 -8 19 -7 0 -19 8 -26 18 -13 15
-12 16 4 3 15 -12 17 -12 12 1 -4 9 -16 21 -28 27 -12 6 -15 10 -6 7 9 -2 16
2 16 9 0 8 -7 11 -15 7 -11 -4 -13 -2 -7 9 8 12 6 12 -8 0 -15 -12 -17 -12
-12 1 4 9 -1 22 -9 31 -19 19 -21 31 -3 21 6 -4 1 5 -12 19 -14 15 -32 27 -42
27 -13 0 -17 6 -14 21 4 18 2 19 -12 7 -15 -11 -16 -11 -10 4 4 13 2 15 -10
11 -12 -5 -14 -2 -9 8 4 8 0 5 -10 -6 -16 -20 -16 -20 -11 3 5 23 2 29 -8 12z
m115 -85 c7 -8 9 -15 6 -15 -4 0 -14 7 -22 15 -9 8 -11 15 -6 15 5 0 15 -7 22
-15z m104 -371 c3 -8 2 -12 -4 -9 -6 3 -10 10 -10 16 0 14 7 11 14 -7z"/>
<path d="M2966 1055 c-4 -12 -10 -14 -25 -5 -14 7 -22 7 -27 -2 -4 -6 -3 -8 3
-5 6 4 13 1 16 -7 4 -10 0 -12 -15 -8 -16 4 -19 2 -13 -9 7 -12 6 -12 -7 -1
-13 10 -18 10 -24 1 -4 -8 -3 -9 4 -5 7 4 12 2 12 -3 0 -6 -6 -11 -12 -11 -9
0 -8 -4 2 -10 13 -8 12 -10 -3 -10 -11 0 -15 -4 -11 -12 4 -6 3 -8 -3 -5 -6 4
-17 -1 -24 -10 -12 -14 -12 -16 0 -8 10 6 12 4 7 -4 -5 -7 -14 -10 -21 -7 -8
3 -11 -2 -8 -15 3 -10 0 -19 -6 -19 -6 0 -10 -3 -8 -7 1 -5 -2 -8 -6 -8 -5 0
-15 -11 -22 -25 -8 -14 -15 -20 -15 -15 -1 6 -6 -5 -13 -24 -7 -19 -19 -37
-27 -39 -11 -4 -10 -1 3 12 9 10 17 22 17 28 0 6 -9 0 -19 -13 -15 -19 -17
-27 -8 -38 9 -11 9 -13 0 -8 -6 4 -14 3 -18 -3 -4 -6 -11 -7 -17 -4 -7 4 -8 2
-4 -4 4 -6 14 -9 24 -6 9 3 5 -2 -11 -11 -15 -9 -33 -13 -39 -9 -7 5 -8 3 -4
-5 5 -7 14 -10 22 -7 8 3 11 0 7 -9 -3 -8 -10 -12 -16 -8 -6 4 -8 0 -4 -10 4
-12 2 -14 -11 -10 -9 3 -14 3 -10 -2 4 -4 2 -15 -5 -23 -10 -13 -9 -14 2 -7
10 5 12 4 7 -3 -11 -18 -26 -14 -27 6 0 11 -2 12 -6 4 -3 -7 1 -20 9 -29 7 -9
8 -14 2 -10 -6 4 -20 -3 -30 -15 -11 -12 -13 -18 -6 -14 16 10 15 0 -4 -30
-16 -23 -16 -24 2 -18 16 6 17 5 7 -7 -15 -15 -17 -33 -4 -24 5 3 11 -5 13
-17 3 -24 26 -28 61 -13 15 6 16 10 5 17 -9 7 -7 8 9 5 20 -4 39 15 35 36 -1
4 5 7 13 7 16 0 16 20 0 32 -6 4 -2 8 8 8 9 0 17 5 17 11 0 5 6 7 13 3 8 -5 7
-2 -2 9 -8 10 -11 20 -7 24 3 3 6 1 6 -5 0 -7 5 -12 12 -12 6 0 8 3 5 7 -4 3
1 12 11 20 10 9 11 11 2 7 -12 -7 -13 -5 -3 8 7 8 10 17 7 21 -3 3 6 13 21 23
15 10 24 23 21 31 -4 9 -1 11 6 7 8 -5 9 -2 4 11 -5 15 -4 16 8 6 13 -11 15
-9 11 8 -2 11 1 24 7 27 7 5 8 2 3 -7 -4 -8 1 -5 12 6 11 11 18 25 16 31 -2 6
4 17 14 25 16 12 17 12 6 -2 -10 -13 -10 -16 1 -16 8 0 13 8 11 19 -2 10 1 18
7 18 6 0 5 7 -3 17 -10 11 -10 14 -1 9 7 -4 12 -2 12 4 0 6 5 8 10 5 9 -6 14
8 11 28 -1 7 16 11 34 7 6 -1 7 2 3 5 -4 4 -3 16 3 26 7 14 6 19 -3 19 -10 0
-10 2 1 9 11 7 10 11 -5 21 -16 10 -16 11 -1 6 9 -3 17 -1 17 4 0 6 -9 10 -21
10 -16 0 -19 4 -14 20 7 23 0 27 -9 5z m24 -95 c0 -5 -5 -10 -11 -10 -5 0 -7
5 -4 10 3 6 8 10 11 10 2 0 4 -4 4 -10z m-295 -441 c-4 -5 -12 -9 -18 -8 -9 0
-8 2 1 6 6 2 9 10 6 15 -4 7 -2 8 5 4 6 -4 9 -12 6 -17z"/>
<path d="M4120 880 c12 -8 11 -10 -5 -11 -11 -1 -23 -1 -26 -1 -3 1 -5 -9 -5
-21 1 -14 -4 -21 -13 -19 -11 2 -12 0 -4 -10 6 -7 9 -23 8 -35 -1 -18 1 -20
12 -11 7 6 16 8 20 4 3 -3 1 -6 -6 -6 -7 0 -10 -10 -7 -25 3 -15 1 -23 -5 -20
-5 4 -6 11 -3 17 4 7 2 8 -4 4 -9 -5 -9 -13 -1 -28 18 -34 18 -68 0 -68 -13 0
-14 -2 -2 -9 17 -11 23 -51 7 -45 -7 3 -11 -10 -12 -30 0 -19 3 -33 7 -30 4 2
11 -1 15 -7 4 -7 3 -9 -4 -5 -6 3 -13 2 -17 -4 -3 -5 0 -10 7 -10 9 0 9 -3 -2
-10 -13 -9 -13 -10 0 -10 13 0 13 -1 0 -10 -10 -6 -11 -10 -2 -10 6 0 12 -5
12 -11 0 -5 -4 -7 -10 -4 -5 3 -10 -1 -10 -10 0 -9 4 -14 8 -11 5 3 9 -1 9 -9
0 -8 -4 -12 -8 -10 -4 3 -9 -2 -12 -10 -4 -9 -1 -12 9 -8 10 4 12 0 8 -11 -3
-9 -10 -13 -15 -10 -15 9 -10 -3 7 -21 15 -15 15 -17 -2 -36 -14 -16 -15 -19
-2 -14 12 5 15 -1 13 -27 -1 -18 -6 -41 -10 -50 -5 -13 -2 -18 11 -19 18 0 17
-1 -1 -9 -12 -5 -14 -9 -6 -9 11 -1 10 -4 -4 -14 -13 -10 -15 -16 -6 -21 6 -4
8 -12 5 -18 -4 -7 -2 -8 4 -4 7 4 12 3 12 -3 0 -5 -4 -13 -10 -16 -5 -3 -10
-12 -10 -18 0 -7 4 -6 10 3 9 13 10 13 11 0 1 -8 1 -19 0 -24 -1 -4 3 -23 9
-41 9 -26 16 -33 38 -33 40 0 57 17 35 34 -17 13 -17 14 2 7 16 -6 18 -4 8 8
-9 11 -8 18 1 31 7 10 15 16 18 13 2 -3 5 2 5 10 0 8 -4 12 -7 10 -4 -3 -7 6
-7 20 0 14 3 22 8 19 5 -3 9 0 9 5 0 6 -4 11 -8 11 -5 0 -9 7 -9 15 0 10 4 12
12 5 8 -7 10 0 9 22 -1 17 -8 34 -14 38 -10 6 -10 8 0 12 15 5 20 98 6 117
-13 17 -17 43 -5 35 5 -3 7 -10 4 -15 -4 -5 -2 -9 4 -9 6 0 7 15 4 36 -4 25
-2 39 8 46 11 8 10 9 -3 4 -10 -3 -20 -1 -23 4 -4 6 1 10 9 10 10 0 13 6 9 17
-5 12 -3 14 8 9 8 -4 4 0 -8 9 -24 18 -21 45 6 45 11 0 12 3 4 8 -7 4 -10 21
-8 40 3 22 -1 34 -13 41 -16 10 -16 10 1 11 19 0 23 15 5 26 -7 4 -8 3 -4 -4
5 -8 1 -10 -10 -5 -11 4 -13 8 -6 11 7 2 10 8 7 13 -4 5 2 6 12 3 16 -5 16 -4
3 8 -18 16 -24 38 -9 38 5 0 7 5 4 10 -4 6 -11 8 -16 5 -5 -4 -9 -1 -9 4 0 6
7 11 15 11 13 0 14 2 3 14 -7 8 -17 12 -23 9 -5 -2 1 6 15 18 17 15 19 20 7
16 -11 -4 -20 -1 -24 9 -3 8 -12 13 -19 10 -7 -3 -11 0 -8 7 3 8 -5 13 -18 14
-18 2 -20 0 -8 -7z m-25 -69 c3 -5 2 -12 -3 -15 -5 -3 -9 1 -9 9 0 17 3 19 12
6z m115 -171 c0 -5 -5 -10 -11 -10 -5 0 -7 5 -4 10 3 6 8 10 11 10 2 0 4 -4 4
-10z m0 -34 c0 -3 -4 -8 -10 -11 -5 -3 -10 -1 -10 4 0 6 5 11 10 11 6 0 10 -2
10 -4z m-117 -41 c-3 -9 -8 -14 -10 -11 -3 3 -2 9 2 15 9 16 15 13 8 -4z m114
-210 c0 -8 -4 -12 -9 -9 -4 3 -8 9 -8 15 0 5 4 9 8 9 5 0 9 -7 9 -15z m-117
-195 c0 -5 -2 -10 -4 -10 -3 0 -8 5 -11 10 -3 6 -1 10 4 10 6 0 11 -4 11 -10z"/>
<path d="M5376 842 c-3 -5 1 -9 9 -9 8 0 12 4 9 9 -3 4 -7 8 -9 8 -2 0 -6 -4
-9 -8z"/>
<path d="M2795 681 c-3 -5 0 -13 6 -17 7 -4 9 -3 5 4 -3 5 0 13 6 15 9 4 10 6
1 6 -6 1 -14 -3 -18 -8z"/>
<path d="M4066 618 c3 -5 10 -6 15 -3 13 9 11 12 -6 12 -8 0 -12 -4 -9 -9z"/>
<path d="M4208 543 c7 -3 16 -2 19 1 4 3 -2 6 -13 5 -11 0 -14 -3 -6 -6z"/>
<path d="M4066 282 c-2 -4 -1 -14 4 -22 7 -11 9 -9 7 8 -1 24 -3 26 -11 14z"/>
<path d="M4186 72 c-3 -5 1 -9 9 -9 8 0 12 4 9 9 -3 4 -7 8 -9 8 -2 0 -6 -4
-9 -8z"/>
</g>
</svg>
